<svg id="visual" viewBox="0 0 1600 900" width="1600" height="900" xmlns="http://www.w3.org/2000/svg" xmlns:xlink="http://www.w3.org/1999/xlink" version="1.1"><rect x="0" y="0" width="1600" height="900" fill="#181F5C"></rect><path d="M0 425L33.3 442.3C66.7 459.7 133.3 494.3 200 511.5C266.7 528.7 333.3 528.3 400 508.8C466.7 489.3 533.3 450.7 600 447.3C666.7 444 733.3 476 800 473.8C866.7 471.7 933.3 435.3 1000 430.3C1066.7 425.3 1133.3 451.7 1200 476.2C1266.7 500.7 1333.3 523.3 1400 527.5C1466.7 531.7 1533.3 517.3 1566.7 510.2L1600 503L1600 0L1566.7 0C1533.3 0 1466.7 0 1400 0C1333.3 0 1266.7 0 1200 0C1133.3 0 1066.7 0 1000 0C933.3 0 866.7 0 800 0C733.3 0 666.7 0 600 0C533.3 0 466.7 0 400 0C333.3 0 266.7 0 200 0C133.3 0 66.7 0 33.3 0L0 0Z" fill="#4851f1"></path><path d="M0 352L33.3 374.7C66.7 397.3 133.3 442.7 200 440.8C266.7 439 333.3 390 400 367.5C466.7 345 533.3 349 600 361.5C666.7 374 733.3 395 800 404.2C866.7 413.3 933.3 410.7 1000 409.8C1066.7 409 1133.3 410 1200 405.5C1266.7 401 1333.3 391 1400 379.7C1466.7 368.3 1533.3 355.7 1566.7 349.3L1600 343L1600 0L1566.7 0C1533.3 0 1466.7 0 1400 0C1333.3 0 1266.7 0 1200 0C1133.3 0 1066.7 0 1000 0C933.3 0 866.7 0 800 0C733.3 0 666.7 0 600 0C533.3 0 466.7 0 400 0C333.3 0 266.7 0 200 0C133.3 0 66.7 0 33.3 0L0 0Z" fill="#6c65f4"></path><path d="M0 393L33.3 397C66.7 401 133.3 409 200 402C266.7 395 333.3 373 400 368.7C466.7 364.3 533.3 377.7 600 391.3C666.7 405 733.3 419 800 419.5C866.7 420 933.3 407 1000 396.8C1066.7 386.7 1133.3 379.3 1200 371.7C1266.7 364 1333.3 356 1400 349.7C1466.7 343.3 1533.3 338.7 1566.7 336.3L1600 334L1600 0L1566.7 0C1533.3 0 1466.7 0 1400 0C1333.3 0 1266.7 0 1200 0C1133.3 0 1066.7 0 1000 0C933.3 0 866.7 0 800 0C733.3 0 666.7 0 600 0C533.3 0 466.7 0 400 0C333.3 0 266.7 0 200 0C133.3 0 66.7 0 33.3 0L0 0Z" fill="#877af6"></path><path d="M0 272L33.3 286.3C66.7 300.7 133.3 329.3 200 333.7C266.7 338 333.3 318 400 315C466.7 312 533.3 326 600 333.3C666.7 340.7 733.3 341.3 800 329.2C866.7 317 933.3 292 1000 282.7C1066.7 273.3 1133.3 279.7 1200 283C1266.7 286.3 1333.3 286.7 1400 292.3C1466.7 298 1533.3 309 1566.7 314.5L1600 320L1600 0L1566.7 0C1533.3 0 1466.7 0 1400 0C1333.3 0 1266.7 0 1200 0C1133.3 0 1066.7 0 1000 0C933.3 0 866.7 0 800 0C733.3 0 666.7 0 600 0C533.3 0 466.7 0 400 0C333.3 0 266.7 0 200 0C133.3 0 66.7 0 33.3 0L0 0Z" fill="#9f8ff8"></path><path d="M0 243L33.3 250.3C66.7 257.7 133.3 272.3 200 277.5C266.7 282.7 333.3 278.3 400 272.5C466.7 266.7 533.3 259.3 600 250.5C666.7 241.7 733.3 231.3 800 229.3C866.7 227.3 933.3 233.7 1000 245.3C1066.7 257 1133.3 274 1200 283.2C1266.7 292.3 1333.3 293.7 1400 292.7C1466.7 291.7 1533.3 288.3 1566.7 286.7L1600 285L1600 0L1566.7 0C1533.3 0 1466.7 0 1400 0C1333.3 0 1266.7 0 1200 0C1133.3 0 1066.7 0 1000 0C933.3 0 866.7 0 800 0C733.3 0 666.7 0 600 0C533.3 0 466.7 0 400 0C333.3 0 266.7 0 200 0C133.3 0 66.7 0 33.3 0L0 0Z" fill="#b4a5fa"></path><path d="M0 198L33.3 208.3C66.7 218.7 133.3 239.3 200 247C266.7 254.7 333.3 249.3 400 239C466.7 228.7 533.3 213.3 600 207.3C666.7 201.3 733.3 204.7 800 199.2C866.7 193.7 933.3 179.3 1000 183.8C1066.7 188.3 1133.3 211.7 1200 226C1266.7 240.3 1333.3 245.7 1400 238.2C1466.7 230.7 1533.3 210.3 1566.7 200.2L1600 190L1600 0L1566.7 0C1533.3 0 1466.7 0 1400 0C1333.3 0 1266.7 0 1200 0C1133.3 0 1066.7 0 1000 0C933.3 0 866.7 0 800 0C733.3 0 666.7 0 600 0C533.3 0 466.7 0 400 0C333.3 0 266.7 0 200 0C133.3 0 66.7 0 33.3 0L0 0Z" fill="#c8bbfc"></path><path d="M0 127L33.3 128C66.7 129 133.3 131 200 141.5C266.7 152 333.3 171 400 169.5C466.7 168 533.3 146 600 136.3C666.7 126.7 733.3 129.3 800 136C866.7 142.7 933.3 153.3 1000 155.2C1066.7 157 1133.3 150 1200 146.7C1266.7 143.3 1333.3 143.7 1400 145.8C1466.7 148 1533.3 152 1566.7 154L1600 156L1600 0L1566.7 0C1533.3 0 1466.7 0 1400 0C1333.3 0 1266.7 0 1200 0C1133.3 0 1066.7 0 1000 0C933.3 0 866.7 0 800 0C733.3 0 666.7 0 600 0C533.3 0 466.7 0 400 0C333.3 0 266.7 0 200 0C133.3 0 66.7 0 33.3 0L0 0Z" fill="#dbd1fd"></path><path d="M0 138L33.3 134.5C66.7 131 133.3 124 200 122C266.7 120 333.3 123 400 117.7C466.7 112.3 533.3 98.7 600 96C666.7 93.3 733.3 101.7 800 110.5C866.7 119.3 933.3 128.7 1000 129.2C1066.7 129.7 1133.3 121.3 1200 110.8C1266.7 100.3 1333.3 87.7 1400 90.3C1466.7 93 1533.3 111 1566.7 120L1600 129L1600 0L1566.7 0C1533.3 0 1466.7 0 1400 0C1333.3 0 1266.7 0 1200 0C1133.3 0 1066.7 0 1000 0C933.3 0 866.7 0 800 0C733.3 0 666.7 0 600 0C533.3 0 466.7 0 400 0C333.3 0 266.7 0 200 0C133.3 0 66.7 0 33.3 0L0 0Z" fill="#ede8fe"></path><path d="M0 64L33.3 66.7C66.7 69.3 133.3 74.7 200 77.3C266.7 80 333.3 80 400 72.8C466.7 65.7 533.3 51.3 600 48.8C666.7 46.3 733.3 55.7 800 57.7C866.7 59.7 933.3 54.3 1000 55.7C1066.7 57 1133.3 65 1200 62.5C1266.7 60 1333.3 47 1400 45.5C1466.7 44 1533.3 54 1566.7 59L1600 64L1600 0L1566.7 0C1533.3 0 1466.7 0 1400 0C1333.3 0 1266.7 0 1200 0C1133.3 0 1066.7 0 1000 0C933.3 0 866.7 0 800 0C733.3 0 666.7 0 600 0C533.3 0 466.7 0 400 0C333.3 0 266.7 0 200 0C133.3 0 66.7 0 33.3 0L0 0Z" fill="#ffffff"></path></svg>